<?xml version="1.0" encoding="UTF-8" standalone="no"?>
<!DOCTYPE svg PUBLIC "-//W3C//DTD SVG 1.1//EN"
 "http://www.w3.org/Graphics/SVG/1.1/DTD/svg11.dtd">
<!-- Generated by graphviz version 2.40.1 (20161225.0304)
 -->
<!-- Title: dependencies Pages: 1 -->
<svg width="1226pt" height="284pt"
 viewBox="0.00 0.00 1226.00 284.00" xmlns="http://www.w3.org/2000/svg" xmlns:xlink="http://www.w3.org/1999/xlink">
<g id="graph0" class="graph" transform="scale(1 1) rotate(0) translate(4 280)">
<title>dependencies</title>
<polygon fill="#ffffff" stroke="transparent" points="-4,4 -4,-280 1222,-280 1222,4 -4,4"/>
<text text-anchor="start" x="588.0091" y="-42.4" font-family="sans-serif" font-weight="bold" font-size="14.00" fill="#000000">Legend</text>
<polygon fill="#ffffb3" stroke="transparent" points="375,-10 375,-30 395,-30 395,-10 375,-10"/>
<text text-anchor="start" x="398.629" y="-15.4" font-family="sans-serif" font-size="14.00" fill="#000000"> &#160;Declarations</text>
<polygon fill="#8dd3c7" stroke="transparent" points="488,-10 488,-30 508,-30 508,-10 488,-10"/>
<text text-anchor="start" x="511.7251" y="-15.4" font-family="sans-serif" font-size="14.00" fill="#000000"> &#160;Module</text>
<polygon fill="#80b1d3" stroke="transparent" points="574,-10 574,-30 594,-30 594,-10 574,-10"/>
<text text-anchor="start" x="597.7812" y="-15.4" font-family="sans-serif" font-size="14.00" fill="#000000"> &#160;Bootstrap</text>
<polygon fill="#fdb462" stroke="transparent" points="671,-10 671,-30 691,-30 691,-10 671,-10"/>
<text text-anchor="start" x="694.6732" y="-15.4" font-family="sans-serif" font-size="14.00" fill="#000000"> &#160;Providers</text>
<polygon fill="#fb8072" stroke="transparent" points="767,-10 767,-30 787,-30 787,-10 767,-10"/>
<text text-anchor="start" x="790.7258" y="-15.4" font-family="sans-serif" font-size="14.00" fill="#000000"> &#160;Exports</text>
<g id="clust1" class="cluster">
<title>cluster_DemoModule</title>
<polygon fill="none" stroke="#000000" stroke-dasharray="1,5" points="8,-70 8,-268 1210,-268 1210,-70 8,-70"/>
</g>
<g id="clust2" class="cluster">
<title>cluster_DemoModule_declarations</title>
<polygon fill="none" stroke="#000000" points="782,-78 782,-130 1202,-130 1202,-78 782,-78"/>
</g>
<g id="clust6" class="cluster">
<title>cluster_DemoModule_imports</title>
<polygon fill="none" stroke="#000000" points="16,-78 16,-130 774,-130 774,-78 16,-78"/>
</g>
<g id="clust7" class="cluster">
<title>cluster_DemoModule_exports</title>
<polygon fill="none" stroke="#000000" points="569,-208 569,-260 705,-260 705,-208 569,-208"/>
</g>
<!-- DemoComponent -->
<g id="node1" class="node">
<title>DemoComponent</title>
<polygon fill="#ffffb3" stroke="#000000" points="1193.5451,-122 1078.4549,-122 1078.4549,-86 1193.5451,-86 1193.5451,-122"/>
<text text-anchor="middle" x="1136" y="-99.8" font-family="Times,serif" font-size="14.00" fill="#000000">DemoComponent</text>
</g>
<!-- DemoModule -->
<g id="node4" class="node">
<title>DemoModule</title>
<polygon fill="#8dd3c7" stroke="#000000" points="683.7619,-187 680.7619,-191 659.7619,-191 656.7619,-187 590.2381,-187 590.2381,-151 683.7619,-151 683.7619,-187"/>
<text text-anchor="middle" x="637" y="-164.8" font-family="Times,serif" font-size="14.00" fill="#000000">DemoModule</text>
</g>
<!-- DemoComponent&#45;&gt;DemoModule -->
<g id="edge1" class="edge">
<title>DemoComponent&#45;&gt;DemoModule</title>
<path fill="none" stroke="#000000" d="M1136,-122.2921C1136,-144.2057 1136,-178 1136,-178 1136,-178 693.9447,-178 693.9447,-178"/>
<polygon fill="#000000" stroke="#000000" points="693.9447,-174.5001 683.9447,-178 693.9447,-181.5001 693.9447,-174.5001"/>
</g>
<!-- Story00Component -->
<g id="node2" class="node">
<title>Story00Component</title>
<polygon fill="#ffffb3" stroke="#000000" points="1059.6666,-122 934.3334,-122 934.3334,-86 1059.6666,-86 1059.6666,-122"/>
<text text-anchor="middle" x="997" y="-99.8" font-family="Times,serif" font-size="14.00" fill="#000000">Story00Component</text>
</g>
<!-- Story00Component&#45;&gt;DemoModule -->
<g id="edge2" class="edge">
<title>Story00Component&#45;&gt;DemoModule</title>
<path fill="none" stroke="#000000" d="M997,-122.1061C997,-141.3391 997,-169 997,-169 997,-169 694.0637,-169 694.0637,-169"/>
<polygon fill="#000000" stroke="#000000" points="694.0637,-165.5001 684.0637,-169 694.0637,-172.5001 694.0637,-165.5001"/>
</g>
<!-- Story01Component -->
<g id="node3" class="node">
<title>Story01Component</title>
<polygon fill="#ffffb3" stroke="#000000" points="915.6666,-122 790.3334,-122 790.3334,-86 915.6666,-86 915.6666,-122"/>
<text text-anchor="middle" x="853" y="-99.8" font-family="Times,serif" font-size="14.00" fill="#000000">Story01Component</text>
</g>
<!-- Story01Component&#45;&gt;DemoModule -->
<g id="edge3" class="edge">
<title>Story01Component&#45;&gt;DemoModule</title>
<path fill="none" stroke="#000000" d="M853,-122.027C853,-138.3976 853,-160 853,-160 853,-160 693.8688,-160 693.8688,-160"/>
<polygon fill="#000000" stroke="#000000" points="693.8688,-156.5001 683.8688,-160 693.8687,-163.5001 693.8688,-156.5001"/>
</g>
<!-- DemoComponent  -->
<g id="node10" class="node">
<title>DemoComponent </title>
<polygon fill="#fb8072" stroke="#000000" points="696.5442,-252 577.4558,-252 577.4558,-216 696.5442,-216 696.5442,-252"/>
<text text-anchor="middle" x="637" y="-229.8" font-family="Times,serif" font-size="14.00" fill="#000000">DemoComponent </text>
</g>
<!-- DemoModule&#45;&gt;DemoComponent  -->
<g id="edge9" class="edge">
<title>DemoModule&#45;&gt;DemoComponent </title>
<path fill="none" stroke="#000000" stroke-dasharray="5,2" d="M637,-187.1061C637,-187.1061 637,-205.991 637,-205.991"/>
<polygon fill="#000000" stroke="#000000" points="633.5001,-205.9909 637,-215.991 640.5001,-205.991 633.5001,-205.9909"/>
</g>
<!-- CommonModule -->
<g id="node5" class="node">
<title>CommonModule</title>
<polygon fill="#8dd3c7" stroke="#000000" points="765.6681,-122 762.6681,-126 741.6681,-126 738.6681,-122 654.3319,-122 654.3319,-86 765.6681,-86 765.6681,-122"/>
<text text-anchor="middle" x="710" y="-99.8" font-family="Times,serif" font-size="14.00" fill="#000000">CommonModule</text>
</g>
<!-- CommonModule&#45;&gt;DemoModule -->
<g id="edge4" class="edge">
<title>CommonModule&#45;&gt;DemoModule</title>
<path fill="none" stroke="#000000" d="M669.0235,-122.1061C669.0235,-122.1061 669.0235,-140.991 669.0235,-140.991"/>
<polygon fill="#000000" stroke="#000000" points="665.5236,-140.9909 669.0235,-150.991 672.5236,-140.991 665.5236,-140.9909"/>
</g>
<!-- ReactiveFormsModule -->
<g id="node6" class="node">
<title>ReactiveFormsModule</title>
<polygon fill="#8dd3c7" stroke="#000000" points="636.3047,-122 633.3047,-126 612.3047,-126 609.3047,-122 491.6953,-122 491.6953,-86 636.3047,-86 636.3047,-122"/>
<text text-anchor="middle" x="564" y="-99.8" font-family="Times,serif" font-size="14.00" fill="#000000">ReactiveFormsModule</text>
</g>
<!-- ReactiveFormsModule&#45;&gt;DemoModule -->
<g id="edge5" class="edge">
<title>ReactiveFormsModule&#45;&gt;DemoModule</title>
<path fill="none" stroke="#000000" d="M613.1357,-122.1061C613.1357,-122.1061 613.1357,-140.991 613.1357,-140.991"/>
<polygon fill="#000000" stroke="#000000" points="609.6358,-140.9909 613.1357,-150.991 616.6358,-140.991 609.6358,-140.9909"/>
</g>
<!-- CloukitThemeModule -->
<g id="node7" class="node">
<title>CloukitThemeModule</title>
<polygon fill="#8dd3c7" stroke="#000000" points="474.4313,-122 471.4313,-126 450.4313,-126 447.4313,-122 333.5687,-122 333.5687,-86 474.4313,-86 474.4313,-122"/>
<text text-anchor="middle" x="404" y="-99.8" font-family="Times,serif" font-size="14.00" fill="#000000">CloukitThemeModule</text>
</g>
<!-- CloukitThemeModule&#45;&gt;DemoModule -->
<g id="edge6" class="edge">
<title>CloukitThemeModule&#45;&gt;DemoModule</title>
<path fill="none" stroke="#000000" d="M404,-122.027C404,-138.3976 404,-160 404,-160 404,-160 580.1293,-160 580.1293,-160"/>
<polygon fill="#000000" stroke="#000000" points="580.1293,-163.5001 590.1293,-160 580.1292,-156.5001 580.1293,-163.5001"/>
</g>
<!-- CloukitToggleModule -->
<g id="node8" class="node">
<title>CloukitToggleModule</title>
<polygon fill="#8dd3c7" stroke="#000000" points="315.7162,-122 312.7162,-126 291.7162,-126 288.7162,-122 174.2838,-122 174.2838,-86 315.7162,-86 315.7162,-122"/>
<text text-anchor="middle" x="245" y="-99.8" font-family="Times,serif" font-size="14.00" fill="#000000">CloukitToggleModule</text>
</g>
<!-- CloukitToggleModule&#45;&gt;DemoModule -->
<g id="edge7" class="edge">
<title>CloukitToggleModule&#45;&gt;DemoModule</title>
<path fill="none" stroke="#000000" d="M245,-122.1061C245,-141.3391 245,-169 245,-169 245,-169 580.105,-169 580.105,-169"/>
<polygon fill="#000000" stroke="#000000" points="580.105,-172.5001 590.105,-169 580.105,-165.5001 580.105,-172.5001"/>
</g>
<!-- CloukitStoryModule -->
<g id="node9" class="node">
<title>CloukitStoryModule</title>
<polygon fill="#8dd3c7" stroke="#000000" points="155.892,-122 152.892,-126 131.892,-126 128.892,-122 24.108,-122 24.108,-86 155.892,-86 155.892,-122"/>
<text text-anchor="middle" x="90" y="-99.8" font-family="Times,serif" font-size="14.00" fill="#000000">CloukitStoryModule</text>
</g>
<!-- CloukitStoryModule&#45;&gt;DemoModule -->
<g id="edge8" class="edge">
<title>CloukitStoryModule&#45;&gt;DemoModule</title>
<path fill="none" stroke="#000000" d="M90,-122.2921C90,-144.2057 90,-178 90,-178 90,-178 579.8897,-178 579.8897,-178"/>
<polygon fill="#000000" stroke="#000000" points="579.8897,-181.5001 589.8897,-178 579.8896,-174.5001 579.8897,-181.5001"/>
</g>
</g>
</svg>
