<?xml version="1.0" encoding="UTF-8" standalone="no"?>
<!DOCTYPE svg PUBLIC "-//W3C//DTD SVG 1.1//EN"
 "http://www.w3.org/Graphics/SVG/1.1/DTD/svg11.dtd">
<!-- Generated by graphviz version 2.40.1 (20161225.0304)
 -->
<!-- Title: dependencies Pages: 1 -->
<svg width="788pt" height="284pt"
 viewBox="0.00 0.00 788.00 284.00" xmlns="http://www.w3.org/2000/svg" xmlns:xlink="http://www.w3.org/1999/xlink">
<g id="graph0" class="graph" transform="scale(1 1) rotate(0) translate(4 280)">
<title>dependencies</title>
<polygon fill="#ffffff" stroke="transparent" points="-4,4 -4,-280 784,-280 784,4 -4,4"/>
<text text-anchor="start" x="369.0091" y="-42.4" font-family="sans-serif" font-weight="bold" font-size="14.00" fill="#000000">Legend</text>
<polygon fill="#ffffb3" stroke="transparent" points="156,-10 156,-30 176,-30 176,-10 156,-10"/>
<text text-anchor="start" x="179.629" y="-15.4" font-family="sans-serif" font-size="14.00" fill="#000000"> &#160;Declarations</text>
<polygon fill="#8dd3c7" stroke="transparent" points="269,-10 269,-30 289,-30 289,-10 269,-10"/>
<text text-anchor="start" x="292.7251" y="-15.4" font-family="sans-serif" font-size="14.00" fill="#000000"> &#160;Module</text>
<polygon fill="#80b1d3" stroke="transparent" points="355,-10 355,-30 375,-30 375,-10 355,-10"/>
<text text-anchor="start" x="378.7812" y="-15.4" font-family="sans-serif" font-size="14.00" fill="#000000"> &#160;Bootstrap</text>
<polygon fill="#fdb462" stroke="transparent" points="452,-10 452,-30 472,-30 472,-10 452,-10"/>
<text text-anchor="start" x="475.6732" y="-15.4" font-family="sans-serif" font-size="14.00" fill="#000000"> &#160;Providers</text>
<polygon fill="#fb8072" stroke="transparent" points="548,-10 548,-30 568,-30 568,-10 548,-10"/>
<text text-anchor="start" x="571.7258" y="-15.4" font-family="sans-serif" font-size="14.00" fill="#000000"> &#160;Exports</text>
<g id="clust1" class="cluster">
<title>cluster_DemoModule</title>
<polygon fill="none" stroke="#000000" stroke-dasharray="1,5" points="8,-70 8,-268 772,-268 772,-70 8,-70"/>
</g>
<g id="clust2" class="cluster">
<title>cluster_DemoModule_declarations</title>
<polygon fill="none" stroke="#000000" points="632,-78 632,-130 764,-130 764,-78 632,-78"/>
</g>
<g id="clust4" class="cluster">
<title>cluster_DemoModule_imports</title>
<polygon fill="none" stroke="#000000" points="16,-78 16,-130 624,-130 624,-78 16,-78"/>
</g>
<g id="clust5" class="cluster">
<title>cluster_DemoModule_exports</title>
<polygon fill="none" stroke="#000000" points="346,-208 346,-260 482,-260 482,-208 346,-208"/>
</g>
<!-- DemoComponent -->
<g id="node1" class="node">
<title>DemoComponent</title>
<polygon fill="#ffffb3" stroke="#000000" points="755.5451,-122 640.4549,-122 640.4549,-86 755.5451,-86 755.5451,-122"/>
<text text-anchor="middle" x="698" y="-99.8" font-family="Times,serif" font-size="14.00" fill="#000000">DemoComponent</text>
</g>
<!-- DemoModule -->
<g id="node2" class="node">
<title>DemoModule</title>
<polygon fill="#8dd3c7" stroke="#000000" points="460.7619,-187 457.7619,-191 436.7619,-191 433.7619,-187 367.2381,-187 367.2381,-151 460.7619,-151 460.7619,-187"/>
<text text-anchor="middle" x="414" y="-164.8" font-family="Times,serif" font-size="14.00" fill="#000000">DemoModule</text>
</g>
<!-- DemoComponent&#45;&gt;DemoModule -->
<g id="edge1" class="edge">
<title>DemoComponent&#45;&gt;DemoModule</title>
<path fill="none" stroke="#000000" d="M698,-122.2843C698,-143.3211 698,-175 698,-175 698,-175 470.8968,-175 470.8968,-175"/>
<polygon fill="#000000" stroke="#000000" points="470.8969,-171.5001 460.8968,-175 470.8968,-178.5001 470.8969,-171.5001"/>
</g>
<!-- DemoComponent  -->
<g id="node7" class="node">
<title>DemoComponent </title>
<polygon fill="#fb8072" stroke="#000000" points="473.5442,-252 354.4558,-252 354.4558,-216 473.5442,-216 473.5442,-252"/>
<text text-anchor="middle" x="414" y="-229.8" font-family="Times,serif" font-size="14.00" fill="#000000">DemoComponent </text>
</g>
<!-- DemoModule&#45;&gt;DemoComponent  -->
<g id="edge6" class="edge">
<title>DemoModule&#45;&gt;DemoComponent </title>
<path fill="none" stroke="#000000" stroke-dasharray="5,2" d="M414,-187.1061C414,-187.1061 414,-205.991 414,-205.991"/>
<polygon fill="#000000" stroke="#000000" points="410.5001,-205.9909 414,-215.991 417.5001,-205.991 410.5001,-205.9909"/>
</g>
<!-- CommonModule -->
<g id="node3" class="node">
<title>CommonModule</title>
<polygon fill="#8dd3c7" stroke="#000000" points="615.6681,-122 612.6681,-126 591.6681,-126 588.6681,-122 504.3319,-122 504.3319,-86 615.6681,-86 615.6681,-122"/>
<text text-anchor="middle" x="560" y="-99.8" font-family="Times,serif" font-size="14.00" fill="#000000">CommonModule</text>
</g>
<!-- CommonModule&#45;&gt;DemoModule -->
<g id="edge2" class="edge">
<title>CommonModule&#45;&gt;DemoModule</title>
<path fill="none" stroke="#000000" d="M560,-122.0225C560,-139.3734 560,-163 560,-163 560,-163 470.999,-163 470.999,-163"/>
<polygon fill="#000000" stroke="#000000" points="470.999,-159.5001 460.999,-163 470.9989,-166.5001 470.999,-159.5001"/>
</g>
<!-- ReactiveFormsModule -->
<g id="node4" class="node">
<title>ReactiveFormsModule</title>
<polygon fill="#8dd3c7" stroke="#000000" points="486.3047,-122 483.3047,-126 462.3047,-126 459.3047,-122 341.6953,-122 341.6953,-86 486.3047,-86 486.3047,-122"/>
<text text-anchor="middle" x="414" y="-99.8" font-family="Times,serif" font-size="14.00" fill="#000000">ReactiveFormsModule</text>
</g>
<!-- ReactiveFormsModule&#45;&gt;DemoModule -->
<g id="edge3" class="edge">
<title>ReactiveFormsModule&#45;&gt;DemoModule</title>
<path fill="none" stroke="#000000" d="M414,-122.1061C414,-122.1061 414,-140.991 414,-140.991"/>
<polygon fill="#000000" stroke="#000000" points="410.5001,-140.9909 414,-150.991 417.5001,-140.991 410.5001,-140.9909"/>
</g>
<!-- CloukitThemeModule -->
<g id="node5" class="node">
<title>CloukitThemeModule</title>
<polygon fill="#8dd3c7" stroke="#000000" points="324.4313,-122 321.4313,-126 300.4313,-126 297.4313,-122 183.5687,-122 183.5687,-86 324.4313,-86 324.4313,-122"/>
<text text-anchor="middle" x="254" y="-99.8" font-family="Times,serif" font-size="14.00" fill="#000000">CloukitThemeModule</text>
</g>
<!-- CloukitThemeModule&#45;&gt;DemoModule -->
<g id="edge4" class="edge">
<title>CloukitThemeModule&#45;&gt;DemoModule</title>
<path fill="none" stroke="#000000" d="M254,-122.0225C254,-139.3734 254,-163 254,-163 254,-163 356.8601,-163 356.8601,-163"/>
<polygon fill="#000000" stroke="#000000" points="356.8601,-166.5001 366.8601,-163 356.8601,-159.5001 356.8601,-166.5001"/>
</g>
<!-- CloukitToggleModule -->
<g id="node6" class="node">
<title>CloukitToggleModule</title>
<polygon fill="#8dd3c7" stroke="#000000" points="165.7162,-122 162.7162,-126 141.7162,-126 138.7162,-122 24.2838,-122 24.2838,-86 165.7162,-86 165.7162,-122"/>
<text text-anchor="middle" x="95" y="-99.8" font-family="Times,serif" font-size="14.00" fill="#000000">CloukitToggleModule</text>
</g>
<!-- CloukitToggleModule&#45;&gt;DemoModule -->
<g id="edge5" class="edge">
<title>CloukitToggleModule&#45;&gt;DemoModule</title>
<path fill="none" stroke="#000000" d="M95,-122.2843C95,-143.3211 95,-175 95,-175 95,-175 356.9305,-175 356.9305,-175"/>
<polygon fill="#000000" stroke="#000000" points="356.9305,-178.5001 366.9305,-175 356.9304,-171.5001 356.9305,-178.5001"/>
</g>
</g>
</svg>
