<?xml version="1.0" encoding="UTF-8" standalone="no"?>
<!DOCTYPE svg PUBLIC "-//W3C//DTD SVG 1.1//EN"
 "http://www.w3.org/Graphics/SVG/1.1/DTD/svg11.dtd">
<!-- Generated by graphviz version 2.40.1 (20161225.0304)
 -->
<!-- Title: dependencies Pages: 1 -->
<svg width="623pt" height="355pt"
 viewBox="0.00 0.00 623.00 355.00" xmlns="http://www.w3.org/2000/svg" xmlns:xlink="http://www.w3.org/1999/xlink">
<g id="graph0" class="graph" transform="scale(1 1) rotate(0) translate(4 351)">
<title>dependencies</title>
<polygon fill="#ffffff" stroke="transparent" points="-4,4 -4,-351 619,-351 619,4 -4,4"/>
<text text-anchor="start" x="286.5091" y="-42.4" font-family="sans-serif" font-weight="bold" font-size="14.00" fill="#000000">Legend</text>
<polygon fill="#ffffb3" stroke="transparent" points="73.5,-10 73.5,-30 93.5,-30 93.5,-10 73.5,-10"/>
<text text-anchor="start" x="97.129" y="-15.4" font-family="sans-serif" font-size="14.00" fill="#000000"> &#160;Declarations</text>
<polygon fill="#8dd3c7" stroke="transparent" points="186.5,-10 186.5,-30 206.5,-30 206.5,-10 186.5,-10"/>
<text text-anchor="start" x="210.2251" y="-15.4" font-family="sans-serif" font-size="14.00" fill="#000000"> &#160;Module</text>
<polygon fill="#80b1d3" stroke="transparent" points="272.5,-10 272.5,-30 292.5,-30 292.5,-10 272.5,-10"/>
<text text-anchor="start" x="296.2812" y="-15.4" font-family="sans-serif" font-size="14.00" fill="#000000"> &#160;Bootstrap</text>
<polygon fill="#fdb462" stroke="transparent" points="369.5,-10 369.5,-30 389.5,-30 389.5,-10 369.5,-10"/>
<text text-anchor="start" x="393.1732" y="-15.4" font-family="sans-serif" font-size="14.00" fill="#000000"> &#160;Providers</text>
<polygon fill="#fb8072" stroke="transparent" points="465.5,-10 465.5,-30 485.5,-30 485.5,-10 465.5,-10"/>
<text text-anchor="start" x="489.2258" y="-15.4" font-family="sans-serif" font-size="14.00" fill="#000000"> &#160;Exports</text>
<g id="clust1" class="cluster">
<title>cluster_CloukitToggleModule</title>
<polygon fill="none" stroke="#000000" stroke-dasharray="1,5" points="8,-70 8,-271 265,-271 265,-70 8,-70"/>
</g>
<g id="clust3" class="cluster">
<title>cluster_CloukitToggleModule_imports</title>
<polygon fill="none" stroke="#000000" points="16,-78 16,-130 257,-130 257,-78 16,-78"/>
</g>
<g id="clust4" class="cluster">
<title>cluster_CloukitToggleModule_exports</title>
<polygon fill="none" stroke="#000000" points="71,-211 71,-263 253,-263 253,-211 71,-211"/>
</g>
<g id="clust7" class="cluster">
<title>cluster_DemoModule</title>
<polygon fill="none" stroke="#000000" stroke-dasharray="1,5" points="273,-138 273,-339 607,-339 607,-138 273,-138"/>
</g>
<g id="clust9" class="cluster">
<title>cluster_DemoModule_imports</title>
<polygon fill="none" stroke="#000000" points="281,-146 281,-198 599,-198 599,-146 281,-146"/>
</g>
<g id="clust10" class="cluster">
<title>cluster_DemoModule_exports</title>
<polygon fill="none" stroke="#000000" points="286,-279 286,-331 422,-331 422,-279 286,-279"/>
</g>
<!-- CommonModule -->
<g id="node1" class="node">
<title>CommonModule</title>
<polygon fill="#8dd3c7" stroke="#000000" points="248.6681,-122 245.6681,-126 224.6681,-126 221.6681,-122 137.3319,-122 137.3319,-86 248.6681,-86 248.6681,-122"/>
<text text-anchor="middle" x="193" y="-99.8" font-family="Times,serif" font-size="14.00" fill="#000000">CommonModule</text>
</g>
<!-- CloukitToggleModule -->
<g id="node3" class="node">
<title>CloukitToggleModule</title>
<polygon fill="#8dd3c7" stroke="#000000" points="232.7162,-190 229.7162,-194 208.7162,-194 205.7162,-190 91.2838,-190 91.2838,-154 232.7162,-154 232.7162,-190"/>
<text text-anchor="middle" x="162" y="-167.8" font-family="Times,serif" font-size="14.00" fill="#000000">CloukitToggleModule</text>
</g>
<!-- CommonModule&#45;&gt;CloukitToggleModule -->
<g id="edge1" class="edge">
<title>CommonModule&#45;&gt;CloukitToggleModule</title>
<path fill="none" stroke="#000000" d="M184.8871,-122.2228C184.8871,-122.2228 184.8871,-143.7269 184.8871,-143.7269"/>
<polygon fill="#000000" stroke="#000000" points="181.3872,-143.7269 184.8871,-153.7269 188.3872,-143.727 181.3872,-143.7269"/>
</g>
<!-- DemoModule -->
<g id="node7" class="node">
<title>DemoModule</title>
<polygon fill="#8dd3c7" stroke="#000000" points="400.7619,-255 397.7619,-259 376.7619,-259 373.7619,-255 307.2381,-255 307.2381,-219 400.7619,-219 400.7619,-255"/>
<text text-anchor="middle" x="354" y="-232.8" font-family="Times,serif" font-size="14.00" fill="#000000">DemoModule</text>
</g>
<!-- CommonModule&#45;&gt;DemoModule -->
<g id="edge4" class="edge">
<title>CommonModule&#45;&gt;DemoModule</title>
<path fill="none" stroke="#000000" d="M248.9205,-104C263.6278,-104 275.4677,-104 275.4677,-104 275.4677,-104 275.4677,-231 275.4677,-231 275.4677,-231 296.9573,-231 296.9573,-231"/>
<polygon fill="#000000" stroke="#000000" points="296.9573,-234.5001 306.9573,-231 296.9573,-227.5001 296.9573,-234.5001"/>
</g>
<!-- FormsModule -->
<g id="node2" class="node">
<title>FormsModule</title>
<polygon fill="#8dd3c7" stroke="#000000" points="119.8288,-122 116.8288,-126 95.8288,-126 92.8288,-122 24.1712,-122 24.1712,-86 119.8288,-86 119.8288,-122"/>
<text text-anchor="middle" x="72" y="-99.8" font-family="Times,serif" font-size="14.00" fill="#000000">FormsModule</text>
</g>
<!-- FormsModule&#45;&gt;CloukitToggleModule -->
<g id="edge2" class="edge">
<title>FormsModule&#45;&gt;CloukitToggleModule</title>
<path fill="none" stroke="#000000" d="M105.5281,-122.2228C105.5281,-122.2228 105.5281,-143.7269 105.5281,-143.7269"/>
<polygon fill="#000000" stroke="#000000" points="102.0281,-143.7269 105.5281,-153.7269 109.0281,-143.727 102.0281,-143.7269"/>
</g>
<!-- CloukitToggleComponent  -->
<g id="node4" class="node">
<title>CloukitToggleComponent </title>
<polygon fill="#fb8072" stroke="#000000" points="245.4993,-255 78.5007,-255 78.5007,-219 245.4993,-219 245.4993,-255"/>
<text text-anchor="middle" x="162" y="-232.8" font-family="Times,serif" font-size="14.00" fill="#000000">CloukitToggleComponent </text>
</g>
<!-- CloukitToggleModule&#45;&gt;CloukitToggleComponent  -->
<g id="edge3" class="edge">
<title>CloukitToggleModule&#45;&gt;CloukitToggleComponent </title>
<path fill="none" stroke="#000000" stroke-dasharray="5,2" d="M162,-190.1061C162,-190.1061 162,-208.991 162,-208.991"/>
<polygon fill="#000000" stroke="#000000" points="158.5001,-208.9909 162,-218.991 165.5001,-208.991 158.5001,-208.9909"/>
</g>
<!-- CloukitToggleModule&#45;&gt;DemoModule -->
<g id="edge7" class="edge">
<title>CloukitToggleModule&#45;&gt;DemoModule</title>
<path fill="none" stroke="#000000" d="M232.6439,-172C249.2163,-172 262.1508,-172 262.1508,-172 262.1508,-172 262.1508,-243 262.1508,-243 262.1508,-243 296.9991,-243 296.9991,-243"/>
<polygon fill="#000000" stroke="#000000" points="296.9991,-246.5001 306.9991,-243 296.9991,-239.5001 296.9991,-246.5001"/>
</g>
<!-- ReactiveFormsModule -->
<g id="node5" class="node">
<title>ReactiveFormsModule</title>
<polygon fill="#8dd3c7" stroke="#000000" points="591.3047,-190 588.3047,-194 567.3047,-194 564.3047,-190 446.6953,-190 446.6953,-154 591.3047,-154 591.3047,-190"/>
<text text-anchor="middle" x="519" y="-167.8" font-family="Times,serif" font-size="14.00" fill="#000000">ReactiveFormsModule</text>
</g>
<!-- ReactiveFormsModule&#45;&gt;DemoModule -->
<g id="edge5" class="edge">
<title>ReactiveFormsModule&#45;&gt;DemoModule</title>
<path fill="none" stroke="#000000" d="M519,-190.1061C519,-209.3391 519,-237 519,-237 519,-237 410.841,-237 410.841,-237"/>
<polygon fill="#000000" stroke="#000000" points="410.8411,-233.5001 400.841,-237 410.841,-240.5001 410.8411,-233.5001"/>
</g>
<!-- CloukitThemeModule -->
<g id="node6" class="node">
<title>CloukitThemeModule</title>
<polygon fill="#8dd3c7" stroke="#000000" points="429.4313,-190 426.4313,-194 405.4313,-194 402.4313,-190 288.5687,-190 288.5687,-154 429.4313,-154 429.4313,-190"/>
<text text-anchor="middle" x="359" y="-167.8" font-family="Times,serif" font-size="14.00" fill="#000000">CloukitThemeModule</text>
</g>
<!-- CloukitThemeModule&#45;&gt;DemoModule -->
<g id="edge6" class="edge">
<title>CloukitThemeModule&#45;&gt;DemoModule</title>
<path fill="none" stroke="#000000" d="M354,-190.1061C354,-190.1061 354,-208.991 354,-208.991"/>
<polygon fill="#000000" stroke="#000000" points="350.5001,-208.9909 354,-218.991 357.5001,-208.991 350.5001,-208.9909"/>
</g>
<!-- DemoComponent  -->
<g id="node8" class="node">
<title>DemoComponent </title>
<polygon fill="#fb8072" stroke="#000000" points="413.5442,-323 294.4558,-323 294.4558,-287 413.5442,-287 413.5442,-323"/>
<text text-anchor="middle" x="354" y="-300.8" font-family="Times,serif" font-size="14.00" fill="#000000">DemoComponent </text>
</g>
<!-- DemoModule&#45;&gt;DemoComponent  -->
<g id="edge8" class="edge">
<title>DemoModule&#45;&gt;DemoComponent </title>
<path fill="none" stroke="#000000" stroke-dasharray="5,2" d="M354,-255.2228C354,-255.2228 354,-276.7269 354,-276.7269"/>
<polygon fill="#000000" stroke="#000000" points="350.5001,-276.7269 354,-286.7269 357.5001,-276.727 350.5001,-276.7269"/>
</g>
</g>
</svg>
