<?xml version="1.0" encoding="UTF-8" standalone="no"?>
<!DOCTYPE svg PUBLIC "-//W3C//DTD SVG 1.1//EN"
 "http://www.w3.org/Graphics/SVG/1.1/DTD/svg11.dtd">
<!-- Generated by graphviz version 2.40.1 (20161225.0304)
 -->
<!-- Title: dependencies Pages: 1 -->
<svg width="504pt" height="349pt"
 viewBox="0.00 0.00 504.00 349.00" xmlns="http://www.w3.org/2000/svg" xmlns:xlink="http://www.w3.org/1999/xlink">
<g id="graph0" class="graph" transform="scale(1 1) rotate(0) translate(4 345)">
<title>dependencies</title>
<polygon fill="#ffffff" stroke="transparent" points="-4,4 -4,-345 500,-345 500,4 -4,4"/>
<text text-anchor="start" x="227.0091" y="-42.4" font-family="sans-serif" font-weight="bold" font-size="14.00" fill="#000000">Legend</text>
<polygon fill="#ffffb3" stroke="transparent" points="14,-10 14,-30 34,-30 34,-10 14,-10"/>
<text text-anchor="start" x="37.629" y="-15.4" font-family="sans-serif" font-size="14.00" fill="#000000"> &#160;Declarations</text>
<polygon fill="#8dd3c7" stroke="transparent" points="127,-10 127,-30 147,-30 147,-10 127,-10"/>
<text text-anchor="start" x="150.7251" y="-15.4" font-family="sans-serif" font-size="14.00" fill="#000000"> &#160;Module</text>
<polygon fill="#80b1d3" stroke="transparent" points="213,-10 213,-30 233,-30 233,-10 213,-10"/>
<text text-anchor="start" x="236.7812" y="-15.4" font-family="sans-serif" font-size="14.00" fill="#000000"> &#160;Bootstrap</text>
<polygon fill="#fdb462" stroke="transparent" points="310,-10 310,-30 330,-30 330,-10 310,-10"/>
<text text-anchor="start" x="333.6732" y="-15.4" font-family="sans-serif" font-size="14.00" fill="#000000"> &#160;Providers</text>
<polygon fill="#fb8072" stroke="transparent" points="406,-10 406,-30 426,-30 426,-10 406,-10"/>
<text text-anchor="start" x="429.7258" y="-15.4" font-family="sans-serif" font-size="14.00" fill="#000000"> &#160;Exports</text>
<g id="clust1" class="cluster">
<title>cluster_CloukitToggleModule</title>
<polygon fill="none" stroke="#000000" stroke-dasharray="1,5" points="26.5,-70 26.5,-333 469.5,-333 469.5,-70 26.5,-70"/>
</g>
<g id="clust2" class="cluster">
<title>cluster_CloukitToggleModule_declarations</title>
<polygon fill="none" stroke="#000000" points="283.5,-143 283.5,-195 461.5,-195 461.5,-143 283.5,-143"/>
</g>
<g id="clust3" class="cluster">
<title>cluster_CloukitToggleModule_CloukitToggleComponent_providers</title>
<polygon fill="none" stroke="#000000" points="67.5,-78 67.5,-130 461.5,-130 461.5,-78 67.5,-78"/>
</g>
<g id="clust4" class="cluster">
<title>cluster_CloukitToggleModule_imports</title>
<polygon fill="none" stroke="#000000" points="34.5,-143 34.5,-195 275.5,-195 275.5,-143 34.5,-143"/>
</g>
<g id="clust5" class="cluster">
<title>cluster_CloukitToggleModule_exports</title>
<polygon fill="none" stroke="#000000" points="120.5,-273 120.5,-325 302.5,-325 302.5,-273 120.5,-273"/>
</g>
<!-- CloukitToggleComponent -->
<g id="node1" class="node">
<title>CloukitToggleComponent</title>
<polygon fill="#ffffb3" stroke="#000000" points="453.9986,-187 291.0014,-187 291.0014,-151 453.9986,-151 453.9986,-187"/>
<text text-anchor="middle" x="372.5" y="-164.8" font-family="Times,serif" font-size="14.00" fill="#000000">CloukitToggleComponent</text>
</g>
<!-- CloukitToggleModule -->
<g id="node2" class="node">
<title>CloukitToggleModule</title>
<polygon fill="#8dd3c7" stroke="#000000" points="282.2162,-252 279.2162,-256 258.2162,-256 255.2162,-252 140.7838,-252 140.7838,-216 282.2162,-216 282.2162,-252"/>
<text text-anchor="middle" x="211.5" y="-229.8" font-family="Times,serif" font-size="14.00" fill="#000000">CloukitToggleModule</text>
</g>
<!-- CloukitToggleComponent&#45;&gt;CloukitToggleModule -->
<g id="edge1" class="edge">
<title>CloukitToggleComponent&#45;&gt;CloukitToggleModule</title>
<path fill="none" stroke="#000000" d="M290.8671,-169C281.22,-169 274.7209,-169 274.7209,-169 274.7209,-169 274.7209,-205.8939 274.7209,-205.8939"/>
<polygon fill="#000000" stroke="#000000" points="271.221,-205.8938 274.7209,-215.8939 278.221,-205.8939 271.221,-205.8938"/>
</g>
<!-- CloukitToggleComponent  -->
<g id="node6" class="node">
<title>CloukitToggleComponent </title>
<polygon fill="#fb8072" stroke="#000000" points="294.9993,-317 128.0007,-317 128.0007,-281 294.9993,-281 294.9993,-317"/>
<text text-anchor="middle" x="211.5" y="-294.8" font-family="Times,serif" font-size="14.00" fill="#000000">CloukitToggleComponent </text>
</g>
<!-- CloukitToggleModule&#45;&gt;CloukitToggleComponent  -->
<g id="edge5" class="edge">
<title>CloukitToggleModule&#45;&gt;CloukitToggleComponent </title>
<path fill="none" stroke="#000000" stroke-dasharray="5,2" d="M211.5,-252.1061C211.5,-252.1061 211.5,-270.991 211.5,-270.991"/>
<polygon fill="#000000" stroke="#000000" points="208.0001,-270.9909 211.5,-280.991 215.0001,-270.991 208.0001,-270.9909"/>
</g>
<!-- CLOUKIT_TOGGLE_VALUE_ACCESSOR -->
<g id="node3" class="node">
<title>CLOUKIT_TOGGLE_VALUE_ACCESSOR</title>
<ellipse fill="#fdb462" stroke="#000000" cx="264.5" cy="-104" rx="189.2289" ry="18"/>
<text text-anchor="middle" x="264.5" y="-99.8" font-family="Times,serif" font-size="14.00" fill="#000000">CLOUKIT_TOGGLE_VALUE_ACCESSOR</text>
</g>
<!-- CLOUKIT_TOGGLE_VALUE_ACCESSOR&#45;&gt;CloukitToggleComponent -->
<g id="edge2" class="edge">
<title>CLOUKIT_TOGGLE_VALUE_ACCESSOR&#45;&gt;CloukitToggleComponent</title>
<path fill="none" stroke="#000000" d="M372.3076,-119.0757C372.3076,-119.0757 372.3076,-140.7642 372.3076,-140.7642"/>
<polygon fill="#000000" stroke="#000000" points="368.8077,-140.7642 372.3076,-150.7642 375.8077,-140.7642 368.8077,-140.7642"/>
</g>
<!-- CommonModule -->
<g id="node4" class="node">
<title>CommonModule</title>
<polygon fill="#8dd3c7" stroke="#000000" points="267.1681,-187 264.1681,-191 243.1681,-191 240.1681,-187 155.8319,-187 155.8319,-151 267.1681,-151 267.1681,-187"/>
<text text-anchor="middle" x="211.5" y="-164.8" font-family="Times,serif" font-size="14.00" fill="#000000">CommonModule</text>
</g>
<!-- CommonModule&#45;&gt;CloukitToggleModule -->
<g id="edge3" class="edge">
<title>CommonModule&#45;&gt;CloukitToggleModule</title>
<path fill="none" stroke="#000000" d="M211.5,-187.1061C211.5,-187.1061 211.5,-205.991 211.5,-205.991"/>
<polygon fill="#000000" stroke="#000000" points="208.0001,-205.9909 211.5,-215.991 215.0001,-205.991 208.0001,-205.9909"/>
</g>
<!-- FormsModule -->
<g id="node5" class="node">
<title>FormsModule</title>
<polygon fill="#8dd3c7" stroke="#000000" points="138.3288,-187 135.3288,-191 114.3288,-191 111.3288,-187 42.6712,-187 42.6712,-151 138.3288,-151 138.3288,-187"/>
<text text-anchor="middle" x="90.5" y="-164.8" font-family="Times,serif" font-size="14.00" fill="#000000">FormsModule</text>
</g>
<!-- FormsModule&#45;&gt;CloukitToggleModule -->
<g id="edge4" class="edge">
<title>FormsModule&#45;&gt;CloukitToggleModule</title>
<path fill="none" stroke="#000000" d="M133.2074,-187.1061C133.2074,-206.3391 133.2074,-234 133.2074,-234 133.2074,-234 133.9581,-234 133.9581,-234"/>
<polygon fill="#000000" stroke="#000000" points="130.7145,-237.5001 140.7144,-234 130.7144,-230.5001 130.7145,-237.5001"/>
</g>
</g>
</svg>
