<!--
  * @license MIT
  * Copyright (c) 2017 Bernhard Grünewaldt - codeclou.io
  * https://github.com/cloukit/legal
-->
<svg width="705" height="437" viewBox="0 0 705 437" xmlns="http://www.w3.org/2000/svg" style="background:#FFFFFF">
  <title>
    cloukit-toggle-decomposed
  </title>
  <defs>
    <style type="text/css">@import url(https://cloukit.github.io/cdn-static/css/webfonts.css);</style>
  </defs>
  <g fill="none" fill-rule="evenodd">
    <path stroke="#777" d="M15.5 17.33h676V421.5h-676z"/>
    <text transform="translate(36 36)" font-size="30" font-family="SourceSansPro-Light, Source Sans Pro" letter-spacing=".333" fill="#710ECC" font-weight="300">
      <tspan x="0" y="30">Toggle Component decomposed</tspan>
    </text>
    <path d="M325 170.69c0-4.057 1.443-7.52 4.328-10.387 2.886-2.87 6.37-4.303 10.45-4.303h28.27c4.08 0 7.563 1.434 10.448 4.303 2.886 2.868 4.328 6.33 4.328 10.387 0 4.056-1.442 7.52-4.328 10.387-2.885 2.868-6.368 4.302-10.45 4.302h-28.27c-4.08 0-7.562-1.435-10.448-4.303-2.885-2.868-4.328-6.33-4.328-10.387z" fill="#777"/>
    <path d="M325 170.69c0-4.057 1.443-7.52 4.328-10.387 2.886-2.87 6.37-4.303 10.45-4.303h28.27c4.08 0 7.563 1.434 10.448 4.303 2.886 2.868 4.328 6.33 4.328 10.387 0 4.056-1.442 7.52-4.328 10.387-2.885 2.868-6.368 4.302-10.45 4.302h-28.27c-4.08 0-7.562-1.435-10.448-4.303-2.885-2.868-4.328-6.33-4.328-10.387z" stroke="#555"/>
    <path fill="#FFF" d="M372.533 166.41l-1.42-1.41-4.347 4.32-4.346-4.32-1.42 1.41 4.347 4.322-4.347 4.32 1.42 1.412 4.346-4.32 4.347 4.32 1.42-1.41-4.347-4.322M352.13 170.496c0 3.175-1.13 5.885-3.388 8.13-2.258 2.244-4.984 3.367-8.177 3.367-3.194 0-5.92-1.123-8.178-3.368-2.258-2.244-3.387-4.954-3.387-8.13 0-3.173 1.13-5.883 3.387-8.128 2.258-2.245 4.984-3.367 8.178-3.367 3.193 0 5.92 1.122 8.177 3.367 2.26 2.245 3.388 4.955 3.388 8.13z"/>
    <path d="M325 245.69c0-4.057 1.443-7.52 4.328-10.388 2.886-2.868 6.37-4.302 10.45-4.302h28.27c4.08 0 7.563 1.434 10.448 4.302 2.886 2.87 4.328 6.33 4.328 10.388 0 4.056-1.442 7.52-4.328 10.387-2.885 2.868-6.368 4.302-10.45 4.302h-28.27c-4.08 0-7.562-1.435-10.448-4.303-2.885-2.868-4.328-6.33-4.328-10.387z" fill="#3FB13D"/>
    <path d="M325 245.69c0-4.057 1.443-7.52 4.328-10.388 2.886-2.868 6.37-4.302 10.45-4.302h28.27c4.08 0 7.563 1.434 10.448 4.302 2.886 2.87 4.328 6.33 4.328 10.388 0 4.056-1.442 7.52-4.328 10.387-2.885 2.868-6.368 4.302-10.45 4.302h-28.27c-4.08 0-7.562-1.435-10.448-4.303-2.885-2.868-4.328-6.33-4.328-10.387z" stroke="#555"/>
    <path fill="#FFF" d="M346.804 241l-8.693 8.642-3.69-3.67-1.42 1.412 3.69 3.67 1.42 1.41 10.114-10.053M377.13 245.496c0 3.175-1.13 5.885-3.388 8.13-2.258 2.244-4.984 3.367-8.177 3.367-3.194 0-5.92-1.123-8.178-3.368-2.258-2.244-3.387-4.954-3.387-8.13 0-3.173 1.13-5.883 3.387-8.128 2.258-2.245 4.984-3.367 8.178-3.367 3.193 0 5.92 1.122 8.177 3.367 2.26 2.245 3.388 4.955 3.388 8.13z"/>
    <text font-family="SourceSansPro-Light, Source Sans Pro" font-size="20" font-weight="300" letter-spacing=".333" fill="#710ECC">
      <tspan x="36" y="131">Elements</tspan>
    </text>
    <text font-family="SourceSansPro-Light, Source Sans Pro" font-size="20" font-weight="300" letter-spacing=".333" fill="#710ECC">
      <tspan x="38" y="327">Box Elements</tspan>
    </text>
    <path d="M319.5 170.5h-57" stroke="#710ECC" opacity=".2" stroke-linecap="square"/>
    <text font-family="SourceSansPro-Light, Source Sans Pro" font-size="20" font-weight="300" letter-spacing=".333" fill="#777">
      <tspan x="181" y="176">wrapper</tspan>
    </text>
    <path d="M428.5 245.5h-57" stroke="#710ECC" opacity=".2" stroke-linecap="square"/>
    <text font-family="SourceSansPro-Light, Source Sans Pro" font-size="20" font-weight="300" letter-spacing=".333" fill="#777">
      <tspan x="436" y="251">circle</tspan>
    </text>
    <text font-family="SourceSansPro-Light, Source Sans Pro" font-size="20" font-weight="300" letter-spacing=".333" fill="#777">
      <tspan x="181" y="251">iconLeft</tspan>
    </text>
    <path d="M335.5 245.5h-73" stroke="#710ECC" opacity=".2" stroke-linecap="square"/>
    <text font-family="SourceSansPro-Light, Source Sans Pro" font-size="20" font-weight="300" letter-spacing=".333" fill="#777">
      <tspan x="436" y="175">iconLeft</tspan>
    </text>
    <path d="M430.5 170.5h-57" stroke="#710ECC" opacity=".2" stroke-linecap="square"/>
    <text font-family="SourceSansPro-LightItalic, Source Sans Pro" font-size="20" font-style="italic" font-weight="300" letter-spacing=".333" fill="#777">
      <tspan x="181" y="373">none</tspan>
    </text>
  </g>
</svg>
