<?xml version="1.0" encoding="UTF-8" standalone="no"?>
<!DOCTYPE svg PUBLIC "-//W3C//DTD SVG 1.1//EN"
 "http://www.w3.org/Graphics/SVG/1.1/DTD/svg11.dtd">
<!-- Generated by graphviz version 2.40.1 (20161225.0304)
 -->
<!-- Title: dependencies Pages: 1 -->
<svg width="504pt" height="284pt"
 viewBox="0.00 0.00 504.00 284.00" xmlns="http://www.w3.org/2000/svg" xmlns:xlink="http://www.w3.org/1999/xlink">
<g id="graph0" class="graph" transform="scale(1 1) rotate(0) translate(4 280)">
<title>dependencies</title>
<polygon fill="#ffffff" stroke="transparent" points="-4,4 -4,-280 500,-280 500,4 -4,4"/>
<text text-anchor="start" x="227.0091" y="-42.4" font-family="sans-serif" font-weight="bold" font-size="14.00" fill="#000000">Legend</text>
<polygon fill="#ffffb3" stroke="transparent" points="14,-10 14,-30 34,-30 34,-10 14,-10"/>
<text text-anchor="start" x="37.629" y="-15.4" font-family="sans-serif" font-size="14.00" fill="#000000"> &#160;Declarations</text>
<polygon fill="#8dd3c7" stroke="transparent" points="127,-10 127,-30 147,-30 147,-10 127,-10"/>
<text text-anchor="start" x="150.7251" y="-15.4" font-family="sans-serif" font-size="14.00" fill="#000000"> &#160;Module</text>
<polygon fill="#80b1d3" stroke="transparent" points="213,-10 213,-30 233,-30 233,-10 213,-10"/>
<text text-anchor="start" x="236.7812" y="-15.4" font-family="sans-serif" font-size="14.00" fill="#000000"> &#160;Bootstrap</text>
<polygon fill="#fdb462" stroke="transparent" points="310,-10 310,-30 330,-30 330,-10 310,-10"/>
<text text-anchor="start" x="333.6732" y="-15.4" font-family="sans-serif" font-size="14.00" fill="#000000"> &#160;Providers</text>
<polygon fill="#fb8072" stroke="transparent" points="406,-10 406,-30 426,-30 426,-10 406,-10"/>
<text text-anchor="start" x="429.7258" y="-15.4" font-family="sans-serif" font-size="14.00" fill="#000000"> &#160;Exports</text>
<g id="clust1" class="cluster">
<title>cluster_CloukitToggleModule</title>
<polygon fill="none" stroke="#000000" stroke-dasharray="1,5" points="119.5,-70 119.5,-268 376.5,-268 376.5,-70 119.5,-70"/>
</g>
<g id="clust3" class="cluster">
<title>cluster_CloukitToggleModule_imports</title>
<polygon fill="none" stroke="#000000" points="127.5,-78 127.5,-130 368.5,-130 368.5,-78 127.5,-78"/>
</g>
<g id="clust4" class="cluster">
<title>cluster_CloukitToggleModule_exports</title>
<polygon fill="none" stroke="#000000" points="156.5,-208 156.5,-260 338.5,-260 338.5,-208 156.5,-208"/>
</g>
<!-- CommonModule -->
<g id="node1" class="node">
<title>CommonModule</title>
<polygon fill="#8dd3c7" stroke="#000000" points="360.1681,-122 357.1681,-126 336.1681,-126 333.1681,-122 248.8319,-122 248.8319,-86 360.1681,-86 360.1681,-122"/>
<text text-anchor="middle" x="304.5" y="-99.8" font-family="Times,serif" font-size="14.00" fill="#000000">CommonModule</text>
</g>
<!-- CloukitToggleModule -->
<g id="node3" class="node">
<title>CloukitToggleModule</title>
<polygon fill="#8dd3c7" stroke="#000000" points="318.2162,-187 315.2162,-191 294.2162,-191 291.2162,-187 176.7838,-187 176.7838,-151 318.2162,-151 318.2162,-187"/>
<text text-anchor="middle" x="247.5" y="-164.8" font-family="Times,serif" font-size="14.00" fill="#000000">CloukitToggleModule</text>
</g>
<!-- CommonModule&#45;&gt;CloukitToggleModule -->
<g id="edge1" class="edge">
<title>CommonModule&#45;&gt;CloukitToggleModule</title>
<path fill="none" stroke="#000000" d="M283.3871,-122.1061C283.3871,-122.1061 283.3871,-140.991 283.3871,-140.991"/>
<polygon fill="#000000" stroke="#000000" points="279.8872,-140.9909 283.3871,-150.991 286.8872,-140.991 279.8872,-140.9909"/>
</g>
<!-- FormsModule -->
<g id="node2" class="node">
<title>FormsModule</title>
<polygon fill="#8dd3c7" stroke="#000000" points="231.3288,-122 228.3288,-126 207.3288,-126 204.3288,-122 135.6712,-122 135.6712,-86 231.3288,-86 231.3288,-122"/>
<text text-anchor="middle" x="183.5" y="-99.8" font-family="Times,serif" font-size="14.00" fill="#000000">FormsModule</text>
</g>
<!-- FormsModule&#45;&gt;CloukitToggleModule -->
<g id="edge2" class="edge">
<title>FormsModule&#45;&gt;CloukitToggleModule</title>
<path fill="none" stroke="#000000" d="M204.0281,-122.1061C204.0281,-122.1061 204.0281,-140.991 204.0281,-140.991"/>
<polygon fill="#000000" stroke="#000000" points="200.5281,-140.9909 204.0281,-150.991 207.5281,-140.991 200.5281,-140.9909"/>
</g>
<!-- CloukitToggleComponent  -->
<g id="node4" class="node">
<title>CloukitToggleComponent </title>
<polygon fill="#fb8072" stroke="#000000" points="330.9993,-252 164.0007,-252 164.0007,-216 330.9993,-216 330.9993,-252"/>
<text text-anchor="middle" x="247.5" y="-229.8" font-family="Times,serif" font-size="14.00" fill="#000000">CloukitToggleComponent </text>
</g>
<!-- CloukitToggleModule&#45;&gt;CloukitToggleComponent  -->
<g id="edge3" class="edge">
<title>CloukitToggleModule&#45;&gt;CloukitToggleComponent </title>
<path fill="none" stroke="#000000" stroke-dasharray="5,2" d="M247.5,-187.1061C247.5,-187.1061 247.5,-205.991 247.5,-205.991"/>
<polygon fill="#000000" stroke="#000000" points="244.0001,-205.9909 247.5,-215.991 251.0001,-205.991 244.0001,-205.9909"/>
</g>
</g>
</svg>
