<?xml version="1.0" encoding="UTF-8" standalone="no"?>
<!DOCTYPE svg PUBLIC "-//W3C//DTD SVG 1.1//EN"
 "http://www.w3.org/Graphics/SVG/1.1/DTD/svg11.dtd">
<!-- Generated by graphviz version 2.40.1 (20161225.0304)
 -->
<!-- Title: dependencies Pages: 1 -->
<svg width="592pt" height="349pt"
 viewBox="0.00 0.00 592.00 349.00" xmlns="http://www.w3.org/2000/svg" xmlns:xlink="http://www.w3.org/1999/xlink">
<g id="graph0" class="graph" transform="scale(1 1) rotate(0) translate(4 345)">
<title>dependencies</title>
<polygon fill="#ffffff" stroke="transparent" points="-4,4 -4,-345 588,-345 588,4 -4,4"/>
<text text-anchor="start" x="271.0091" y="-42.4" font-family="sans-serif" font-weight="bold" font-size="14.00" fill="#000000">Legend</text>
<polygon fill="#ffffb3" stroke="transparent" points="58,-10 58,-30 78,-30 78,-10 58,-10"/>
<text text-anchor="start" x="81.629" y="-15.4" font-family="sans-serif" font-size="14.00" fill="#000000"> &#160;Declarations</text>
<polygon fill="#8dd3c7" stroke="transparent" points="171,-10 171,-30 191,-30 191,-10 171,-10"/>
<text text-anchor="start" x="194.7251" y="-15.4" font-family="sans-serif" font-size="14.00" fill="#000000"> &#160;Module</text>
<polygon fill="#80b1d3" stroke="transparent" points="257,-10 257,-30 277,-30 277,-10 257,-10"/>
<text text-anchor="start" x="280.7812" y="-15.4" font-family="sans-serif" font-size="14.00" fill="#000000"> &#160;Bootstrap</text>
<polygon fill="#fdb462" stroke="transparent" points="354,-10 354,-30 374,-30 374,-10 354,-10"/>
<text text-anchor="start" x="377.6732" y="-15.4" font-family="sans-serif" font-size="14.00" fill="#000000"> &#160;Providers</text>
<polygon fill="#fb8072" stroke="transparent" points="450,-10 450,-30 470,-30 470,-10 450,-10"/>
<text text-anchor="start" x="473.7258" y="-15.4" font-family="sans-serif" font-size="14.00" fill="#000000"> &#160;Exports</text>
<g id="clust1" class="cluster">
<title>cluster_CloukitToggleModule</title>
<polygon fill="none" stroke="#000000" stroke-dasharray="1,5" points="8,-70 8,-333 576,-333 576,-70 8,-70"/>
</g>
<g id="clust2" class="cluster">
<title>cluster_CloukitToggleModule_declarations</title>
<polygon fill="none" stroke="#000000" points="390,-143 390,-195 568,-195 568,-143 390,-143"/>
</g>
<g id="clust3" class="cluster">
<title>cluster_CloukitToggleModule_CloukitToggleComponent_providers</title>
<polygon fill="none" stroke="#000000" points="174,-78 174,-130 568,-130 568,-78 174,-78"/>
</g>
<g id="clust4" class="cluster">
<title>cluster_CloukitToggleModule_imports</title>
<polygon fill="none" stroke="#000000" points="16,-143 16,-195 382,-195 382,-143 16,-143"/>
</g>
<g id="clust5" class="cluster">
<title>cluster_CloukitToggleModule_exports</title>
<polygon fill="none" stroke="#000000" points="163,-273 163,-325 345,-325 345,-273 163,-273"/>
</g>
<!-- CloukitToggleComponent -->
<g id="node1" class="node">
<title>CloukitToggleComponent</title>
<polygon fill="#ffffb3" stroke="#000000" points="560.4986,-187 397.5014,-187 397.5014,-151 560.4986,-151 560.4986,-187"/>
<text text-anchor="middle" x="479" y="-164.8" font-family="Times,serif" font-size="14.00" fill="#000000">CloukitToggleComponent</text>
</g>
<!-- CloukitToggleModule -->
<g id="node2" class="node">
<title>CloukitToggleModule</title>
<polygon fill="#8dd3c7" stroke="#000000" points="324.7162,-252 321.7162,-256 300.7162,-256 297.7162,-252 183.2838,-252 183.2838,-216 324.7162,-216 324.7162,-252"/>
<text text-anchor="middle" x="254" y="-229.8" font-family="Times,serif" font-size="14.00" fill="#000000">CloukitToggleModule</text>
</g>
<!-- CloukitToggleComponent&#45;&gt;CloukitToggleModule -->
<g id="edge1" class="edge">
<title>CloukitToggleComponent&#45;&gt;CloukitToggleModule</title>
<path fill="none" stroke="#000000" d="M479,-187.1061C479,-206.3391 479,-234 479,-234 479,-234 334.8826,-234 334.8826,-234"/>
<polygon fill="#000000" stroke="#000000" points="334.8826,-230.5001 324.8826,-234 334.8825,-237.5001 334.8826,-230.5001"/>
</g>
<!-- CloukitToggleComponent  -->
<g id="node7" class="node">
<title>CloukitToggleComponent </title>
<polygon fill="#fb8072" stroke="#000000" points="337.4993,-317 170.5007,-317 170.5007,-281 337.4993,-281 337.4993,-317"/>
<text text-anchor="middle" x="254" y="-294.8" font-family="Times,serif" font-size="14.00" fill="#000000">CloukitToggleComponent </text>
</g>
<!-- CloukitToggleModule&#45;&gt;CloukitToggleComponent  -->
<g id="edge6" class="edge">
<title>CloukitToggleModule&#45;&gt;CloukitToggleComponent </title>
<path fill="none" stroke="#000000" stroke-dasharray="5,2" d="M254,-252.1061C254,-252.1061 254,-270.991 254,-270.991"/>
<polygon fill="#000000" stroke="#000000" points="250.5001,-270.9909 254,-280.991 257.5001,-270.991 250.5001,-270.9909"/>
</g>
<!-- CLOUKIT_TOGGLE_VALUE_ACCESSOR -->
<g id="node3" class="node">
<title>CLOUKIT_TOGGLE_VALUE_ACCESSOR</title>
<ellipse fill="#fdb462" stroke="#000000" cx="371" cy="-104" rx="189.2289" ry="18"/>
<text text-anchor="middle" x="371" y="-99.8" font-family="Times,serif" font-size="14.00" fill="#000000">CLOUKIT_TOGGLE_VALUE_ACCESSOR</text>
</g>
<!-- CLOUKIT_TOGGLE_VALUE_ACCESSOR&#45;&gt;CloukitToggleComponent -->
<g id="edge2" class="edge">
<title>CLOUKIT_TOGGLE_VALUE_ACCESSOR&#45;&gt;CloukitToggleComponent</title>
<path fill="none" stroke="#000000" d="M478.8076,-119.0757C478.8076,-119.0757 478.8076,-140.7642 478.8076,-140.7642"/>
<polygon fill="#000000" stroke="#000000" points="475.3077,-140.7642 478.8076,-150.7642 482.3077,-140.7642 475.3077,-140.7642"/>
</g>
<!-- CommonModule -->
<g id="node4" class="node">
<title>CommonModule</title>
<polygon fill="#8dd3c7" stroke="#000000" points="373.6681,-187 370.6681,-191 349.6681,-191 346.6681,-187 262.3319,-187 262.3319,-151 373.6681,-151 373.6681,-187"/>
<text text-anchor="middle" x="318" y="-164.8" font-family="Times,serif" font-size="14.00" fill="#000000">CommonModule</text>
</g>
<!-- CommonModule&#45;&gt;CloukitToggleModule -->
<g id="edge3" class="edge">
<title>CommonModule&#45;&gt;CloukitToggleModule</title>
<path fill="none" stroke="#000000" d="M293.3871,-187.1061C293.3871,-187.1061 293.3871,-205.991 293.3871,-205.991"/>
<polygon fill="#000000" stroke="#000000" points="289.8872,-205.9909 293.3871,-215.991 296.8872,-205.991 289.8872,-205.9909"/>
</g>
<!-- BrowserModule -->
<g id="node5" class="node">
<title>BrowserModule</title>
<polygon fill="#8dd3c7" stroke="#000000" points="244.4734,-187 241.4734,-191 220.4734,-191 217.4734,-187 137.5266,-187 137.5266,-151 244.4734,-151 244.4734,-187"/>
<text text-anchor="middle" x="191" y="-164.8" font-family="Times,serif" font-size="14.00" fill="#000000">BrowserModule</text>
</g>
<!-- BrowserModule&#45;&gt;CloukitToggleModule -->
<g id="edge4" class="edge">
<title>BrowserModule&#45;&gt;CloukitToggleModule</title>
<path fill="none" stroke="#000000" d="M213.9394,-187.1061C213.9394,-187.1061 213.9394,-205.991 213.9394,-205.991"/>
<polygon fill="#000000" stroke="#000000" points="210.4394,-205.9909 213.9394,-215.991 217.4394,-205.991 210.4394,-205.9909"/>
</g>
<!-- FormsModule -->
<g id="node6" class="node">
<title>FormsModule</title>
<polygon fill="#8dd3c7" stroke="#000000" points="119.8288,-187 116.8288,-191 95.8288,-191 92.8288,-187 24.1712,-187 24.1712,-151 119.8288,-151 119.8288,-187"/>
<text text-anchor="middle" x="72" y="-164.8" font-family="Times,serif" font-size="14.00" fill="#000000">FormsModule</text>
</g>
<!-- FormsModule&#45;&gt;CloukitToggleModule -->
<g id="edge5" class="edge">
<title>FormsModule&#45;&gt;CloukitToggleModule</title>
<path fill="none" stroke="#000000" d="M72,-187.1061C72,-206.3391 72,-234 72,-234 72,-234 173.3736,-234 173.3736,-234"/>
<polygon fill="#000000" stroke="#000000" points="173.3736,-237.5001 183.3736,-234 173.3735,-230.5001 173.3736,-237.5001"/>
</g>
</g>
</svg>
