<?xml version="1.0" encoding="UTF-8" standalone="no"?>
<!DOCTYPE svg PUBLIC "-//W3C//DTD SVG 1.1//EN"
 "http://www.w3.org/Graphics/SVG/1.1/DTD/svg11.dtd">
<!-- Generated by graphviz version 2.40.1 (20161225.0304)
 -->
<!-- Title: dependencies Pages: 1 -->
<svg width="773pt" height="355pt"
 viewBox="0.00 0.00 773.00 355.00" xmlns="http://www.w3.org/2000/svg" xmlns:xlink="http://www.w3.org/1999/xlink">
<g id="graph0" class="graph" transform="scale(1 1) rotate(0) translate(4 351)">
<title>dependencies</title>
<polygon fill="#ffffff" stroke="transparent" points="-4,4 -4,-351 769,-351 769,4 -4,4"/>
<text text-anchor="start" x="361.5091" y="-42.4" font-family="sans-serif" font-weight="bold" font-size="14.00" fill="#000000">Legend</text>
<polygon fill="#ffffb3" stroke="transparent" points="148.5,-10 148.5,-30 168.5,-30 168.5,-10 148.5,-10"/>
<text text-anchor="start" x="172.129" y="-15.4" font-family="sans-serif" font-size="14.00" fill="#000000"> &#160;Declarations</text>
<polygon fill="#8dd3c7" stroke="transparent" points="261.5,-10 261.5,-30 281.5,-30 281.5,-10 261.5,-10"/>
<text text-anchor="start" x="285.2251" y="-15.4" font-family="sans-serif" font-size="14.00" fill="#000000"> &#160;Module</text>
<polygon fill="#80b1d3" stroke="transparent" points="347.5,-10 347.5,-30 367.5,-30 367.5,-10 347.5,-10"/>
<text text-anchor="start" x="371.2812" y="-15.4" font-family="sans-serif" font-size="14.00" fill="#000000"> &#160;Bootstrap</text>
<polygon fill="#fdb462" stroke="transparent" points="444.5,-10 444.5,-30 464.5,-30 464.5,-10 444.5,-10"/>
<text text-anchor="start" x="468.1732" y="-15.4" font-family="sans-serif" font-size="14.00" fill="#000000"> &#160;Providers</text>
<polygon fill="#fb8072" stroke="transparent" points="540.5,-10 540.5,-30 560.5,-30 560.5,-10 540.5,-10"/>
<text text-anchor="start" x="564.2258" y="-15.4" font-family="sans-serif" font-size="14.00" fill="#000000"> &#160;Exports</text>
<g id="clust1" class="cluster">
<title>cluster_CloukitToggleModule</title>
<polygon fill="none" stroke="#000000" stroke-dasharray="1,5" points="8,-70 8,-271 265,-271 265,-70 8,-70"/>
</g>
<g id="clust3" class="cluster">
<title>cluster_CloukitToggleModule_imports</title>
<polygon fill="none" stroke="#000000" points="16,-78 16,-130 257,-130 257,-78 16,-78"/>
</g>
<g id="clust4" class="cluster">
<title>cluster_CloukitToggleModule_exports</title>
<polygon fill="none" stroke="#000000" points="71,-211 71,-263 253,-263 253,-211 71,-211"/>
</g>
<g id="clust7" class="cluster">
<title>cluster_DemoModule</title>
<polygon fill="none" stroke="#000000" stroke-dasharray="1,5" points="273,-138 273,-339 757,-339 757,-138 273,-138"/>
</g>
<g id="clust9" class="cluster">
<title>cluster_DemoModule_imports</title>
<polygon fill="none" stroke="#000000" points="281,-146 281,-198 749,-198 749,-146 281,-146"/>
</g>
<g id="clust10" class="cluster">
<title>cluster_DemoModule_exports</title>
<polygon fill="none" stroke="#000000" points="287,-279 287,-331 423,-331 423,-279 287,-279"/>
</g>
<!-- CommonModule -->
<g id="node1" class="node">
<title>CommonModule</title>
<polygon fill="#8dd3c7" stroke="#000000" points="248.6681,-122 245.6681,-126 224.6681,-126 221.6681,-122 137.3319,-122 137.3319,-86 248.6681,-86 248.6681,-122"/>
<text text-anchor="middle" x="193" y="-99.8" font-family="Times,serif" font-size="14.00" fill="#000000">CommonModule</text>
</g>
<!-- CloukitToggleModule -->
<g id="node3" class="node">
<title>CloukitToggleModule</title>
<polygon fill="#8dd3c7" stroke="#000000" points="232.7162,-190 229.7162,-194 208.7162,-194 205.7162,-190 91.2838,-190 91.2838,-154 232.7162,-154 232.7162,-190"/>
<text text-anchor="middle" x="162" y="-167.8" font-family="Times,serif" font-size="14.00" fill="#000000">CloukitToggleModule</text>
</g>
<!-- CommonModule&#45;&gt;CloukitToggleModule -->
<g id="edge1" class="edge">
<title>CommonModule&#45;&gt;CloukitToggleModule</title>
<path fill="none" stroke="#000000" d="M184.8871,-122.2228C184.8871,-122.2228 184.8871,-143.7269 184.8871,-143.7269"/>
<polygon fill="#000000" stroke="#000000" points="181.3872,-143.7269 184.8871,-153.7269 188.3872,-143.727 181.3872,-143.7269"/>
</g>
<!-- DemoModule -->
<g id="node8" class="node">
<title>DemoModule</title>
<polygon fill="#8dd3c7" stroke="#000000" points="401.7619,-255 398.7619,-259 377.7619,-259 374.7619,-255 308.2381,-255 308.2381,-219 401.7619,-219 401.7619,-255"/>
<text text-anchor="middle" x="355" y="-232.8" font-family="Times,serif" font-size="14.00" fill="#000000">DemoModule</text>
</g>
<!-- CommonModule&#45;&gt;DemoModule -->
<g id="edge4" class="edge">
<title>CommonModule&#45;&gt;DemoModule</title>
<path fill="none" stroke="#000000" d="M249.0422,-104C263.7816,-104 275.6473,-104 275.6473,-104 275.6473,-104 275.6473,-231 275.6473,-231 275.6473,-231 297.9231,-231 297.9231,-231"/>
<polygon fill="#000000" stroke="#000000" points="297.9231,-234.5001 307.9231,-231 297.923,-227.5001 297.9231,-234.5001"/>
</g>
<!-- FormsModule -->
<g id="node2" class="node">
<title>FormsModule</title>
<polygon fill="#8dd3c7" stroke="#000000" points="119.8288,-122 116.8288,-126 95.8288,-126 92.8288,-122 24.1712,-122 24.1712,-86 119.8288,-86 119.8288,-122"/>
<text text-anchor="middle" x="72" y="-99.8" font-family="Times,serif" font-size="14.00" fill="#000000">FormsModule</text>
</g>
<!-- FormsModule&#45;&gt;CloukitToggleModule -->
<g id="edge2" class="edge">
<title>FormsModule&#45;&gt;CloukitToggleModule</title>
<path fill="none" stroke="#000000" d="M105.5281,-122.2228C105.5281,-122.2228 105.5281,-143.7269 105.5281,-143.7269"/>
<polygon fill="#000000" stroke="#000000" points="102.0281,-143.7269 105.5281,-153.7269 109.0281,-143.727 102.0281,-143.7269"/>
</g>
<!-- CloukitToggleComponent  -->
<g id="node4" class="node">
<title>CloukitToggleComponent </title>
<polygon fill="#fb8072" stroke="#000000" points="245.4993,-255 78.5007,-255 78.5007,-219 245.4993,-219 245.4993,-255"/>
<text text-anchor="middle" x="162" y="-232.8" font-family="Times,serif" font-size="14.00" fill="#000000">CloukitToggleComponent </text>
</g>
<!-- CloukitToggleModule&#45;&gt;CloukitToggleComponent  -->
<g id="edge3" class="edge">
<title>CloukitToggleModule&#45;&gt;CloukitToggleComponent </title>
<path fill="none" stroke="#000000" stroke-dasharray="5,2" d="M162,-190.1061C162,-190.1061 162,-208.991 162,-208.991"/>
<polygon fill="#000000" stroke="#000000" points="158.5001,-208.9909 162,-218.991 165.5001,-208.991 158.5001,-208.9909"/>
</g>
<!-- CloukitToggleModule&#45;&gt;DemoModule -->
<g id="edge7" class="edge">
<title>CloukitToggleModule&#45;&gt;DemoModule</title>
<path fill="none" stroke="#000000" d="M232.7072,-172C249.2944,-172 262.2405,-172 262.2405,-172 262.2405,-172 262.2405,-243 262.2405,-243 262.2405,-243 298.0768,-243 298.0768,-243"/>
<polygon fill="#000000" stroke="#000000" points="298.0768,-246.5001 308.0768,-243 298.0767,-239.5001 298.0768,-246.5001"/>
</g>
<!-- ReactiveFormsModule -->
<g id="node5" class="node">
<title>ReactiveFormsModule</title>
<polygon fill="#8dd3c7" stroke="#000000" points="741.3047,-190 738.3047,-194 717.3047,-194 714.3047,-190 596.6953,-190 596.6953,-154 741.3047,-154 741.3047,-190"/>
<text text-anchor="middle" x="669" y="-167.8" font-family="Times,serif" font-size="14.00" fill="#000000">ReactiveFormsModule</text>
</g>
<!-- ReactiveFormsModule&#45;&gt;DemoModule -->
<g id="edge5" class="edge">
<title>ReactiveFormsModule&#45;&gt;DemoModule</title>
<path fill="none" stroke="#000000" d="M669,-190.2843C669,-211.3211 669,-243 669,-243 669,-243 412.009,-243 412.009,-243"/>
<polygon fill="#000000" stroke="#000000" points="412.009,-239.5001 402.009,-243 412.0089,-246.5001 412.009,-239.5001"/>
</g>
<!-- CloukitThemeModule -->
<g id="node6" class="node">
<title>CloukitThemeModule</title>
<polygon fill="#8dd3c7" stroke="#000000" points="579.4313,-190 576.4313,-194 555.4313,-194 552.4313,-190 438.5687,-190 438.5687,-154 579.4313,-154 579.4313,-190"/>
<text text-anchor="middle" x="509" y="-167.8" font-family="Times,serif" font-size="14.00" fill="#000000">CloukitThemeModule</text>
</g>
<!-- CloukitThemeModule&#45;&gt;DemoModule -->
<g id="edge6" class="edge">
<title>CloukitThemeModule&#45;&gt;DemoModule</title>
<path fill="none" stroke="#000000" d="M509,-190.0225C509,-207.3734 509,-231 509,-231 509,-231 412.0419,-231 412.0419,-231"/>
<polygon fill="#000000" stroke="#000000" points="412.0419,-227.5001 402.0419,-231 412.0418,-234.5001 412.0419,-227.5001"/>
</g>
<!-- CloukitStoryModule -->
<g id="node7" class="node">
<title>CloukitStoryModule</title>
<polygon fill="#8dd3c7" stroke="#000000" points="420.892,-190 417.892,-194 396.892,-194 393.892,-190 289.108,-190 289.108,-154 420.892,-154 420.892,-190"/>
<text text-anchor="middle" x="355" y="-167.8" font-family="Times,serif" font-size="14.00" fill="#000000">CloukitStoryModule</text>
</g>
<!-- CloukitStoryModule&#45;&gt;DemoModule -->
<g id="edge8" class="edge">
<title>CloukitStoryModule&#45;&gt;DemoModule</title>
<path fill="none" stroke="#000000" d="M355,-190.1061C355,-190.1061 355,-208.991 355,-208.991"/>
<polygon fill="#000000" stroke="#000000" points="351.5001,-208.9909 355,-218.991 358.5001,-208.991 351.5001,-208.9909"/>
</g>
<!-- DemoComponent  -->
<g id="node9" class="node">
<title>DemoComponent </title>
<polygon fill="#fb8072" stroke="#000000" points="414.5442,-323 295.4558,-323 295.4558,-287 414.5442,-287 414.5442,-323"/>
<text text-anchor="middle" x="355" y="-300.8" font-family="Times,serif" font-size="14.00" fill="#000000">DemoComponent </text>
</g>
<!-- DemoModule&#45;&gt;DemoComponent  -->
<g id="edge9" class="edge">
<title>DemoModule&#45;&gt;DemoComponent </title>
<path fill="none" stroke="#000000" stroke-dasharray="5,2" d="M355,-255.2228C355,-255.2228 355,-276.7269 355,-276.7269"/>
<polygon fill="#000000" stroke="#000000" points="351.5001,-276.7269 355,-286.7269 358.5001,-276.727 351.5001,-276.7269"/>
</g>
</g>
</svg>
